:SAMPLES-PER-SECOND 30
:FULLY-SPECIFIED
:DEGREES
32
root  -55.5089 33.2442 1.86415 142.912 79.8379 134.402
RightUpLeg  4.14282 -5.33868 0.648388
RightLeg  54.1991 3.71929 -10.0954
RightFoot  6.9961 -1.08808 6.03778
RightToes  -1.74624e-010 -1.59028e-015 9.93923e-017
Spine  13.8634 6.91844 -5.91171
Spine1  13.2779 10.3165 -14.3912
HEad  -41.3637 -16.3018 25.4347
LeftShoulder1  9.93923e-017 0 1.22299e-017
LeftArm  15.1109 43.26 -52.2326
LeftForeArm  -17.0609 -13.2379 -2.40761
LeftHand  0.562825 4.72835 4.64757
RightShoulder  1.98785e-016 -4.96962e-017 1.55301e-017
RightArm  16.2687 -11.2421 88.226
RightForeArm  -37.3728 26.0454 -24.4501
RightHand  1.60698 -13.4708 -5.68124
LeftUpLeg  -52.5885 -7.71063 -9.98462
LeftLeg  51.8375 -7.38259 5.91985
LeftFoot  -8.54699 -0.112856 2.09975
LeftToes  2.64666e-010 -8.50449e-011 8.41596e-012
33
root  -53.2725 33.1972 1.94859 149.638 75.7122 141.917
RightUpLeg  -8.4283 -7.46814 0.617516
RightLeg  73.1349 7.97371 -10.7716
RightFoot  4.04708 -0.341649 2.16558
RightToes  -1.74624e-010 -1.59028e-015 9.93923e-017
Spine  16.7575 5.08299 -10.3099
Spine1  13.1412 6.56191 -10.8184
HEad  -43.3783 -14.7945 25.1381
LeftShoulder1  9.93923e-017 0 1.22299e-017
LeftArm  3.60048 28.1569 -63.3188
LeftForeArm  -12.7133 -8.14401 -5.994
LeftHand  0.419961 4.29164 7.05727
RightShoulder  1.98785e-016 -4.96962e-017 1.55301e-017
RightArm  16.2426 -13.2619 90.2308
RightForeArm  -39.2739 24.7245 -23.4626
RightHand  1.80448 -14.2389 -6.9198
LeftUpLeg  -48.7537 -8.76788 -11.7641
LeftLeg  55.047 -9.18206 4.06535
LeftFoot  -12.442 -0.0737122 3.78118
LeftToes  2.64666e-010 -8.50449e-011 8.41596e-012
34
root  -51.0689 33.5433 2.00535 155.668 72.0482 149.552
RightUpLeg  -23.2172 -7.26873 1.22804
RightLeg  90.6781 11.4098 -7.71203
RightFoot  -1.2891 0.114666 -0.998147
RightToes  -1.74624e-010 -1.59028e-015 9.93923e-017
Spine  20.4424 3.50306 -13.0434
Spine1  11.4124 3.00168 -7.12798
HEad  -43.0412 -14.0863 25.1245
LeftShoulder1  9.93923e-017 0 1.22299e-017
LeftArm  -0.148624 10.2215 -72.0972
LeftForeArm  -12.2943 -8.28978 -6.17394
LeftHand  0.236746 3.72877 9.28291
RightShoulder  1.98785e-016 -4.96962e-017 1.55301e-017
RightArm  18.0473 -17.4072 89.2667
RightForeArm  -41.3126 24.1732 -22.9857
RightHand  1.70207 -14.2175 -5.49877
LeftUpLeg  -43.2054 -9.23431 -11.9781
LeftLeg  56.0161 -10.3427 2.35097
LeftFoot  -15.2423 0.0213054 4.11749
LeftToes  2.64666e-010 -8.50449e-011 8.41596e-012
35
root  -48.8388 34.1668 2.0882 162.85 68.3881 159.12
RightUpLeg  -38.2215 -6.20041 1.03572
RightLeg  104.164 12.1226 -2.91877
RightFoot  -5.29702 0.122383 -1.74974
RightToes  -1.74624e-010 -1.59028e-015 9.93923e-017
Spine  24.7222 2.11938 -15.2871
Spine1  7.89966 -0.912126 -1.54321
HEad  -39.9324 -12.6187 25.4866
LeftShoulder1  9.93923e-017 0 1.22299e-017
LeftArm  1.49921 -6.65049 -78.2095
LeftForeArm  -14.6726 -13.815 -1.7707
LeftHand  0.116584 3.40673 10.6856
RightShoulder  1.98785e-016 -4.96962e-017 1.55301e-017
RightArm  23.4826 -21.8334 85.1544
RightForeArm  -42.3828 23.8673 -22.7277
RightHand  1.2467 -12.9712 -0.742086
LeftUpLeg  -36.6586 -9.05328 -10.0995
LeftLeg  55.7266 -11.6258 0.199395
LeftFoot  -17.3614 0.122519 4.95054
LeftToes  2.64666e-010 -8.50449e-011 8.41596e-012
36
root  -46.4877 35.2802 2.11683 172.284 64.9997 171.375
RightUpLeg  -51.7615 -6.01911 0.336985
RightLeg  111.058 11.4494 -0.00582542
RightFoot  -8.04668 0.122173 -2.84908
RightToes  -1.74624e-010 -1.59028e-015 9.93923e-017
Spine  29.2783 0.750401 -15.6625
Spine1  3.10235 -4.61069 6.75474
HEad  -35.325 -10.1234 24.7361
LeftShoulder1  9.93923e-017 0 1.22299e-017
LeftArm  13.4524 -19.346 -81.3945
LeftForeArm  -27.8513 -21.7313 8.90575
LeftHand  0.0911527 3.42742 11.5447
RightShoulder  1.98785e-016 -4.96962e-017 1.55301e-017
RightArm  30.5715 -25.1109 78.2161
RightForeArm  -42.3305 23.5514 -22.5294
RightHand  0.920095 -11.4132 2.92362
LeftUpLeg  -28.8818 -9.96631 -4.86677
LeftLeg  52.9254 -13.4592 -2.61914
LeftFoot  -19.1212 0.203389 5.48516
LeftToes  2.64666e-010 -8.50449e-011 8.41596e-012
37
root  -44.1899 37.2217 1.96389 -177.099 63.6011 -175.525
RightUpLeg  -63.4013 -5.77022 0.214563
RightLeg  110.298 11.667 -0.750921
RightFoot  -10.028 0.132686 -4.86556
RightToes  -1.74624e-010 -1.59028e-015 9.93923e-017
Spine  33.2315 -0.704963 -11.8226
Spine1  -1.68991 -6.20205 14.0208
HEad  -30.9188 -8.14894 21.3671
LeftShoulder1  9.93923e-017 0 1.22299e-017
LeftArm  20.2332 -26.4123 -81.0936
LeftForeArm  -35.8893 -26.1349 18.196
LeftHand  0.045092 3.42996 12.896
RightShoulder  1.98785e-016 -4.96962e-017 1.55301e-017
RightArm  37.6249 -27.0169 69.2434
RightForeArm  -43.7919 22.8526 -22.0344
RightHand  0.901856 -11.0418 2.83842
LeftUpLeg  -19.394 -12.6515 2.42325
LeftLeg  43.2059 -14.0541 -3.48166
LeftFoot  -16.5572 0.0479878 2.48225
LeftToes  2.64666e-010 -8.50449e-011 8.41596e-012
